<svg width="20" height="19" viewBox="0 0 20 19" fill="none" xmlns="http://www.w3.org/2000/svg">
<path d="M6.97429 9.40997C6.97429 7.6777 8.37779 6.27305 10.1096 6.27305C11.8413 6.27305 13.2456 7.6777 13.2456 9.40997C13.2456 11.1422 11.8413 12.5469 10.1096 12.5469C8.37779 12.5469 6.97429 11.1422 6.97429 9.40997ZM5.27903 9.40997C5.27903 12.0786 7.44165 14.2419 10.1096 14.2419C12.7775 14.2419 14.9401 12.0786 14.9401 9.40997C14.9401 6.74129 12.7775 4.57805 10.1096 4.57805C7.44165 4.57805 5.27903 6.74129 5.27903 9.40997ZM14.0024 4.38646C14.0023 4.60979 14.0685 4.82814 14.1924 5.01389C14.3164 5.19963 14.4927 5.34443 14.6989 5.42998C14.9051 5.51553 15.1321 5.53798 15.3511 5.4945C15.5701 5.45102 15.7713 5.34355 15.9292 5.1857C16.0872 5.02784 16.1948 4.82668 16.2384 4.60765C16.2821 4.38862 16.2598 4.16157 16.1744 3.9552C16.0891 3.74883 15.9444 3.57242 15.7589 3.44827C15.5733 3.32411 15.355 3.2578 15.1318 3.25771H15.1313C14.832 3.25785 14.5451 3.3768 14.3334 3.58844C14.1217 3.80008 14.0027 4.0871 14.0024 4.38646ZM6.30901 17.0695C5.39184 17.0277 4.89333 16.8749 4.56204 16.7458C4.12283 16.5747 3.80946 16.371 3.47998 16.0419C3.1505 15.7128 2.94655 15.3996 2.77631 14.9603C2.64717 14.6291 2.4944 14.1303 2.4527 13.2128C2.4071 12.2209 2.39799 11.923 2.39799 9.41004C2.39799 6.89712 2.40785 6.59999 2.4527 5.60728C2.49447 4.68984 2.64837 4.19201 2.77631 3.8598C2.9473 3.42047 3.15095 3.107 3.47998 2.77743C3.80901 2.44785 4.12208 2.24384 4.56204 2.07356C4.89318 1.94438 5.39184 1.79156 6.30901 1.74985C7.30061 1.70423 7.59849 1.69512 10.1096 1.69512C12.6206 1.69512 12.9188 1.70499 13.9112 1.74985C14.8284 1.79163 15.3261 1.94558 15.6582 2.07356C16.0974 2.24384 16.4108 2.4483 16.7403 2.77743C17.0697 3.10655 17.2729 3.42047 17.4439 3.8598C17.5731 4.19103 17.7258 4.68984 17.7675 5.60728C17.8131 6.59999 17.8222 6.89712 17.8222 9.41004C17.8222 11.923 17.8131 12.2201 17.7675 13.2128C17.7258 14.1303 17.5722 14.6289 17.4439 14.9603C17.2729 15.3996 17.0693 15.7131 16.7403 16.0419C16.4112 16.3707 16.0974 16.5747 15.6582 16.7458C15.3271 16.875 14.8284 17.0278 13.9112 17.0695C12.9196 17.1151 12.6217 17.1242 10.1096 17.1242C7.59736 17.1242 7.30031 17.1151 6.30901 17.0695ZM6.23112 0.0569564C5.22966 0.102576 4.54533 0.261417 3.94771 0.494032C3.32878 0.734251 2.80484 1.05652 2.28126 1.57942C1.75769 2.10231 1.43634 2.62724 1.19619 3.24634C0.963642 3.84452 0.804848 4.52866 0.759241 5.53042C0.712882 6.53375 0.702271 6.85451 0.702271 9.40997C0.702271 11.9654 0.712882 12.2862 0.759241 13.2895C0.804848 14.2914 0.963642 14.9754 1.19619 15.5736C1.43634 16.1923 1.75777 16.7178 2.28126 17.2405C2.80476 17.7632 3.32878 18.085 3.94771 18.3259C4.54646 18.5585 5.22966 18.7174 6.23112 18.763C7.23469 18.8086 7.55484 18.82 10.1096 18.82C12.6643 18.82 12.9849 18.8094 13.988 18.763C14.9895 18.7174 15.6734 18.5585 16.2714 18.3259C16.8899 18.085 17.4143 17.7634 17.9378 17.2405C18.4614 16.7176 18.7821 16.1923 19.0229 15.5736C19.2555 14.9754 19.415 14.2913 19.4599 13.2895C19.5055 12.2854 19.5161 11.9654 19.5161 9.40997C19.5161 6.85451 19.5055 6.53375 19.4599 5.53042C19.4143 4.52859 19.2555 3.84414 19.0229 3.24634C18.7821 2.62762 18.4606 2.10314 17.9378 1.57942C17.4151 1.0557 16.8899 0.734251 16.2722 0.494032C15.6734 0.261417 14.9895 0.101823 13.9887 0.0569564C12.9857 0.0113368 12.665 -3.05176e-05 10.1103 -3.05176e-05C7.55559 -3.05176e-05 7.23469 0.010584 6.23112 0.0569564Z" fill="white"/>
</svg>
